<mxfile host="app.diagrams.net" modified="2022-02-06T17:00:43.085Z" agent="5.0 (Windows NT 10.0; Win64; x64) AppleWebKit/537.36 (KHTML, like Gecko) Chrome/91.0.4472.164 Safari/537.36" etag="gqisD6FWcbOgYjJafrZP" version="16.5.3" type="github">
  <diagram id="b38Ql__e6GZCYGE3zAg8" name="Page-1">
    <mxGraphModel dx="868" dy="450" grid="1" gridSize="10" guides="1" tooltips="1" connect="1" arrows="1" fold="1" page="1" pageScale="1" pageWidth="827" pageHeight="1169" math="0" shadow="0">
      <root>
        <mxCell id="0" />
        <mxCell id="1" parent="0" />
        <mxCell id="QiVv7o8NBLpjZMXznHJP-1" value="&amp;nbsp;java.sql接口&lt;br&gt;DataSoure" style="html=1;" vertex="1" parent="1">
          <mxGeometry x="200" y="80" width="160" height="40" as="geometry" />
        </mxCell>
        <mxCell id="QiVv7o8NBLpjZMXznHJP-2" value="&lt;p style=&quot;margin: 0px ; margin-top: 4px ; text-align: center&quot;&gt;&lt;b&gt;springboot默认数据源&lt;/b&gt;&lt;/p&gt;&lt;hr size=&quot;1&quot;&gt;&lt;div style=&quot;height: 2px&quot;&gt;&lt;span style=&quot;white-space: pre&quot;&gt;	&lt;/span&gt;HikeriDataSource&lt;/div&gt;" style="verticalAlign=top;align=left;overflow=fill;fontSize=12;fontFamily=Helvetica;html=1;" vertex="1" parent="1">
          <mxGeometry x="120" y="180" width="140" height="60" as="geometry" />
        </mxCell>
        <mxCell id="QiVv7o8NBLpjZMXznHJP-3" value="&lt;p style=&quot;margin: 0px ; margin-top: 4px ; text-align: center&quot;&gt;&lt;b&gt;alibaba&lt;/b&gt;&lt;/p&gt;&lt;hr size=&quot;1&quot;&gt;&lt;div style=&quot;height: 2px&quot;&gt;&lt;span style=&quot;white-space: pre&quot;&gt;	&lt;/span&gt;DruidDataSource&lt;/div&gt;" style="verticalAlign=top;align=left;overflow=fill;fontSize=12;fontFamily=Helvetica;html=1;" vertex="1" parent="1">
          <mxGeometry x="310" y="180" width="140" height="60" as="geometry" />
        </mxCell>
        <mxCell id="QiVv7o8NBLpjZMXznHJP-4" value="MyBatis" style="html=1;" vertex="1" parent="1">
          <mxGeometry x="480" y="75" width="110" height="50" as="geometry" />
        </mxCell>
        <mxCell id="QiVv7o8NBLpjZMXznHJP-6" value="sqlSession依赖数据源" style="text;html=1;align=center;verticalAlign=middle;resizable=0;points=[];autosize=1;strokeColor=none;fillColor=none;" vertex="1" parent="1">
          <mxGeometry x="360" y="40" width="130" height="20" as="geometry" />
        </mxCell>
        <mxCell id="QiVv7o8NBLpjZMXznHJP-7" value="mysql-connector-java" style="html=1;" vertex="1" parent="1">
          <mxGeometry x="230" y="330" width="110" height="50" as="geometry" />
        </mxCell>
        <mxCell id="QiVv7o8NBLpjZMXznHJP-10" value="依赖mysql驱动" style="text;html=1;align=center;verticalAlign=middle;resizable=0;points=[];autosize=1;strokeColor=none;fillColor=none;" vertex="1" parent="1">
          <mxGeometry x="380" y="340" width="90" height="20" as="geometry" />
        </mxCell>
        <mxCell id="QiVv7o8NBLpjZMXznHJP-13" value="" style="endArrow=block;dashed=1;endFill=0;endSize=12;html=1;rounded=0;entryX=0.5;entryY=1;entryDx=0;entryDy=0;exitX=0.5;exitY=0;exitDx=0;exitDy=0;edgeStyle=orthogonalEdgeStyle;" edge="1" parent="1" source="QiVv7o8NBLpjZMXznHJP-2" target="QiVv7o8NBLpjZMXznHJP-1">
          <mxGeometry width="160" relative="1" as="geometry">
            <mxPoint x="190" y="170" as="sourcePoint" />
            <mxPoint x="340" y="150" as="targetPoint" />
          </mxGeometry>
        </mxCell>
        <mxCell id="QiVv7o8NBLpjZMXznHJP-14" value="" style="endArrow=block;dashed=1;endFill=0;endSize=12;html=1;rounded=0;exitX=0.5;exitY=0;exitDx=0;exitDy=0;edgeStyle=orthogonalEdgeStyle;" edge="1" parent="1" source="QiVv7o8NBLpjZMXznHJP-3">
          <mxGeometry width="160" relative="1" as="geometry">
            <mxPoint x="324" y="185" as="sourcePoint" />
            <mxPoint x="280" y="120" as="targetPoint" />
          </mxGeometry>
        </mxCell>
        <mxCell id="QiVv7o8NBLpjZMXznHJP-18" style="edgeStyle=orthogonalEdgeStyle;rounded=0;orthogonalLoop=1;jettySize=auto;html=1;exitX=0;exitY=0.5;exitDx=0;exitDy=0;entryX=1;entryY=0.5;entryDx=0;entryDy=0;" edge="1" parent="1" source="QiVv7o8NBLpjZMXznHJP-15" target="QiVv7o8NBLpjZMXznHJP-4">
          <mxGeometry relative="1" as="geometry" />
        </mxCell>
        <mxCell id="QiVv7o8NBLpjZMXznHJP-15" value="annotation" style="html=1;" vertex="1" parent="1">
          <mxGeometry x="670" y="10" width="110" height="50" as="geometry" />
        </mxCell>
        <mxCell id="QiVv7o8NBLpjZMXznHJP-19" style="edgeStyle=orthogonalEdgeStyle;rounded=0;orthogonalLoop=1;jettySize=auto;html=1;entryX=1;entryY=0.5;entryDx=0;entryDy=0;exitX=0;exitY=0.5;exitDx=0;exitDy=0;" edge="1" parent="1" source="QiVv7o8NBLpjZMXznHJP-20" target="QiVv7o8NBLpjZMXznHJP-4">
          <mxGeometry relative="1" as="geometry">
            <mxPoint x="650" y="150" as="sourcePoint" />
            <mxPoint x="610" y="150" as="targetPoint" />
          </mxGeometry>
        </mxCell>
        <mxCell id="QiVv7o8NBLpjZMXznHJP-20" value="xml" style="html=1;" vertex="1" parent="1">
          <mxGeometry x="670" y="130" width="110" height="50" as="geometry" />
        </mxCell>
        <mxCell id="QiVv7o8NBLpjZMXznHJP-23" value="" style="endArrow=diamondThin;endFill=0;endSize=24;html=1;rounded=0;exitX=1;exitY=0.5;exitDx=0;exitDy=0;" edge="1" parent="1" source="QiVv7o8NBLpjZMXznHJP-1">
          <mxGeometry width="160" relative="1" as="geometry">
            <mxPoint x="370" y="100" as="sourcePoint" />
            <mxPoint x="480" y="99.5" as="targetPoint" />
          </mxGeometry>
        </mxCell>
        <mxCell id="QiVv7o8NBLpjZMXznHJP-24" value="" style="endArrow=diamondThin;endFill=0;endSize=24;html=1;rounded=0;exitX=0.5;exitY=0;exitDx=0;exitDy=0;entryX=0.5;entryY=1;entryDx=0;entryDy=0;edgeStyle=orthogonalEdgeStyle;" edge="1" parent="1" source="QiVv7o8NBLpjZMXznHJP-7" target="QiVv7o8NBLpjZMXznHJP-2">
          <mxGeometry width="160" relative="1" as="geometry">
            <mxPoint x="90" y="310.5" as="sourcePoint" />
            <mxPoint x="210" y="310" as="targetPoint" />
          </mxGeometry>
        </mxCell>
        <mxCell id="QiVv7o8NBLpjZMXznHJP-25" value="" style="endArrow=diamondThin;endFill=0;endSize=24;html=1;rounded=0;entryX=0.5;entryY=1;entryDx=0;entryDy=0;edgeStyle=orthogonalEdgeStyle;exitX=0.5;exitY=0;exitDx=0;exitDy=0;" edge="1" parent="1" source="QiVv7o8NBLpjZMXznHJP-7">
          <mxGeometry width="160" relative="1" as="geometry">
            <mxPoint x="310" y="300" as="sourcePoint" />
            <mxPoint x="375.01" y="240" as="targetPoint" />
          </mxGeometry>
        </mxCell>
      </root>
    </mxGraphModel>
  </diagram>
</mxfile>
